<svg width="65" height="38" viewBox="0 0 65 38" fill="none" xmlns="http://www.w3.org/2000/svg">
<g clip-path="url(#clip0_67_1046)">
<path d="M43.9128 30.3117H43.6861C42.7792 30.2676 42.0233 29.9141 41.721 29.428L31.7443 12.6373L22.5233 24.9653C22.2209 25.3629 21.6164 25.6722 20.8605 25.7165C20.1047 25.8048 19.3489 25.6723 18.8198 25.3629L8.61626 19.442H2.26737C0.982582 19.442 0 18.8676 0 18.1164C0 17.3652 0.982582 16.7908 2.26737 16.7908H9.52318C10.1279 16.7908 10.6569 16.9234 11.1103 17.1885L19.7266 22.1373L29.9303 8.48382C30.3081 7.99777 31.1396 7.68848 32.1221 7.68848C33.0291 7.68848 33.8605 8.042 34.1628 8.5722L44.3664 25.7606L51.5466 18.3374C51.9245 17.9397 52.6804 17.6746 53.5118 17.6746H62.7328C64.0177 17.6746 65.0002 18.249 65.0002 19.0001C65.0002 19.7512 64.0176 20.3257 62.7328 20.3257H54.8723L45.8781 29.6489C45.5 30.0466 44.7442 30.3117 43.9128 30.3117Z" fill="#02A6AB"/>
</g>
<defs>
<clipPath id="clip0_67_1046">
<rect width="65" height="38" fill="white"/>
</clipPath>
</defs>
</svg>
